<svg width="57" height="33" viewBox="0 0 57 33" fill="none" xmlns="http://www.w3.org/2000/svg">
<g clip-path="url(#clip0_797_16276)">
<path d="M14.9521 19.9208C13.5389 18.9343 11.9891 20.2054 11.9891 20.2054C9.83519 21.6358 6.95444 21.1841 5.33447 19.1621C3.7145 17.14 3.8857 14.2096 5.72995 12.3928C7.5742 10.5759 10.4877 10.4674 12.4602 12.1422C13.2261 12.6116 14.1904 12.6024 14.9474 12.1185C14.9474 12.1185 16.6527 10.6955 14.2502 8.7983H14.3209C10.6549 6.17937 5.61654 6.7709 2.64734 10.1688C-0.321853 13.5668 -0.262972 18.6738 2.78376 22.0014C5.8305 25.329 10.8811 25.8026 14.4858 23.0987C16.5397 21.2157 14.9521 19.9208 14.9521 19.9208Z" fill="#D84727"/>
<path d="M40.7339 19.9208C39.3207 18.9343 37.7755 20.2054 37.7755 20.2054C35.6232 21.6308 32.7477 21.1775 31.1311 19.1579C29.5145 17.1383 29.6854 14.2129 31.5261 12.3981C33.3667 10.5833 36.2751 10.4725 38.2466 12.1422C39.0114 12.6097 39.9733 12.6005 40.7292 12.1184C40.7292 12.1184 42.4345 10.6955 40.032 8.79828H40.1026C36.4372 6.1857 31.4042 6.78084 28.4397 10.1774C25.4751 13.574 25.5356 18.676 28.5799 22.0003C31.6241 25.3247 36.6697 25.7986 40.2722 23.0987C42.3214 21.2157 40.7339 19.9208 40.7339 19.9208Z" fill="#D84727"/>
<path d="M20.9303 5.90025C21.9553 5.90025 22.7863 4.89369 22.7863 3.65203C22.7863 2.41037 21.9553 1.40381 20.9303 1.40381C19.9052 1.40381 19.0742 2.41037 19.0742 3.65203C19.0742 4.89369 19.9052 5.90025 20.9303 5.90025Z" fill="#D84727"/>
<path d="M22.7859 9.19678C22.7361 8.20253 21.9209 7.42212 20.9322 7.42212C19.9435 7.42212 19.1283 8.20253 19.0785 9.19678V22.6576C19.044 23.3469 19.3896 23.9992 19.9773 24.3542C20.5651 24.7093 21.2993 24.7093 21.8871 24.3542C22.4748 23.9992 22.8204 23.3469 22.7859 22.6576V9.19678Z" fill="#D84727"/>
<path d="M46.8345 5.90025C47.8596 5.90025 48.6906 4.89369 48.6906 3.65203C48.6906 2.41037 47.8596 1.40381 46.8345 1.40381C45.8095 1.40381 44.9785 2.41037 44.9785 3.65203C44.9785 4.89369 45.8095 5.90025 46.8345 5.90025Z" fill="#D84727"/>
<path d="M48.6902 9.19678C48.6404 8.20253 47.8252 7.42212 46.8365 7.42212C45.8478 7.42212 45.0326 8.20253 44.9828 9.19678V22.6576C44.9483 23.3469 45.2939 23.9992 45.8816 24.3542C46.4694 24.7093 47.2036 24.7093 47.7914 24.3542C48.3791 23.9992 48.7247 23.3469 48.6902 22.6576V9.19678Z" fill="#D84727"/>
<path d="M56.7078 2.34302C56.7423 1.65377 56.3967 1.00147 55.809 0.646416C55.2212 0.291364 54.487 0.291364 53.8992 0.646416C53.3115 1.00147 52.9659 1.65377 53.0004 2.34302V9.19677V22.6576C52.9659 23.3469 53.3115 23.9992 53.8992 24.3542C54.487 24.7093 55.2212 24.7093 55.809 24.3542C56.3967 23.9992 56.7423 23.3469 56.7078 22.6576V9.19677V2.34302Z" fill="#D84727"/>
<path d="M26.5821 27.818C25.7436 27.0212 24.3021 27.5382 24.3021 27.5382C23.4093 28.4404 22.1965 28.9476 20.9315 28.9476C19.6666 28.9476 18.4538 28.4404 17.561 27.5382C17.561 27.5382 16.1148 27.0212 15.2763 27.818C14.6921 28.4163 14.5536 29.3237 14.9324 30.071C16.5101 31.6964 18.672 32.6127 20.9292 32.6127C23.1864 32.6127 25.3483 31.6964 26.926 30.071C27.3094 29.3245 27.1704 28.4142 26.5821 27.818Z" fill="#D84727"/>
</g>
<defs>
<clipPath id="clip0_797_16276">
<rect width="57" height="33" fill="white"/>
</clipPath>
</defs>
</svg>
