<?xml version="1.0" standalone="no"?>
<!DOCTYPE svg PUBLIC "-//W3C//DTD SVG 20010904//EN"
 "http://www.w3.org/TR/2001/REC-SVG-20010904/DTD/svg10.dtd">
<svg version="1.0" xmlns="http://www.w3.org/2000/svg"
 width="175.000000pt" height="175.000000pt" viewBox="0 0 175.000000 175.000000"
 preserveAspectRatio="xMidYMid meet">

<g transform="translate(0.000000,175.000000) scale(0.100000,-0.100000)"
fill="#80753D" stroke="none">
<path d="M545 1728 c-33 -9 -79 -49 -272 -242 -191 -191 -233 -238 -242 -271
-15 -54 -15 -616 0 -670 9 -33 51 -80 242 -272 192 -191 239 -233 272 -242 56
-15 615 -15 667 1 31 9 85 58 266 240 125 126 232 241 239 256 16 35 18 657 3
699 -13 32 -440 466 -485 491 -26 15 -70 17 -340 19 -190 1 -325 -2 -350 -9z
m426 -240 c63 -21 352 -193 394 -233 22 -22 52 -62 65 -90 24 -49 25 -55 25
-285 l0 -235 -28 -57 c-38 -78 -76 -108 -276 -223 -172 -98 -176 -100 -249
-104 -41 -2 -93 2 -114 9 -60 17 -354 190 -400 233 -22 21 -50 62 -64 90 -23
50 -24 60 -24 278 0 269 6 295 84 374 51 51 315 213 395 241 45 16 147 18 192
2z"/>
<path d="M795 1237 c-97 -26 -166 -73 -218 -150 -67 -98 -83 -206 -47 -318 38
-122 133 -212 255 -244 73 -19 115 -19 183 -1 192 51 307 236 267 429 -18 86
-50 141 -115 200 -86 77 -218 111 -325 84z m155 -265 c14 -10 31 -35 37 -55
34 -101 -77 -194 -167 -141 -56 34 -78 114 -44 163 43 60 117 75 174 33z"/>
</g>
</svg>
