<?xml version="1.0" standalone="no"?>
<!DOCTYPE svg PUBLIC "-//W3C//DTD SVG 20010904//EN"
 "http://www.w3.org/TR/2001/REC-SVG-20010904/DTD/svg10.dtd">
<svg version="1.0" xmlns="http://www.w3.org/2000/svg"
 width="1464.000000pt" height="184.000000pt" viewBox="0 0 1464.000000 184.000000"
 preserveAspectRatio="xMidYMid meet">
<metadata>
Created by potrace 1.16, written by Peter Selinger 2001-2019
</metadata>
<g transform="translate(0.000000,184.000000) scale(0.100000,-0.100000)"
fill="#000000" stroke="none">
<path d="M200 960 l0 -860 160 0 160 0 0 447 0 448 275 -275 275 -275 265 265
265 265 0 -438 0 -437 160 0 160 0 0 857 0 856 -21 -19 c-12 -10 -206 -213
-431 -451 l-410 -431 -421 453 c-232 249 -425 454 -429 454 -5 1 -8 -386 -8
-859z"/>
<path d="M4151 1799 c-5 -13 -194 -397 -420 -853 -226 -456 -411 -832 -411
-837 0 -5 71 -9 158 -9 l159 0 79 45 c204 117 453 149 685 90 69 -18 211 -81
259 -115 27 -19 40 -20 193 -18 l164 3 -419 850 c-230 468 -423 854 -428 859
-6 6 -13 0 -19 -15z m109 -809 c46 -96 116 -242 157 -324 41 -82 68 -146 61
-144 -31 12 -129 29 -215 37 -102 9 -258 -1 -352 -23 -34 -8 -61 -11 -59 -6
26 68 314 648 319 642 4 -4 44 -86 89 -182z"/>
<path d="M9980 1804 c-44 -19 -454 -425 -481 -476 -18 -35 -19 -61 -19 -369 0
-275 3 -336 15 -363 20 -42 452 -472 488 -485 18 -7 150 -11 361 -11 l333 0
39 28 c72 50 461 454 473 491 7 22 11 140 11 345 0 283 -2 315 -19 351 -23 49
-453 479 -494 495 -18 6 -149 10 -350 10 -263 -1 -328 -4 -357 -16z m426 -237
c55 -14 333 -169 399 -222 22 -18 54 -57 70 -86 l30 -54 0 -245 0 -245 -30
-54 c-39 -71 -76 -100 -251 -201 -276 -159 -296 -159 -575 1 -178 103 -215
133 -257 212 l-27 52 0 230 c0 219 1 232 23 281 34 76 90 123 262 221 224 128
252 137 356 110z"/>
<path d="M10223 1316 c-133 -43 -230 -156 -252 -295 -27 -165 58 -330 207
-399 51 -24 69 -27 162 -27 86 1 114 5 153 23 71 32 149 111 183 185 26 55 29
73 29 157 0 87 -3 101 -32 161 -64 130 -176 201 -323 206 -53 2 -101 -2 -127
-11z m167 -261 c32 -17 60 -61 60 -95 0 -29 -26 -76 -52 -94 -45 -32 -132 -12
-155 36 -21 44 -23 59 -9 92 28 67 94 93 156 61z"/>
<path d="M13364 1164 c-180 -362 -371 -750 -425 -861 l-98 -203 160 0 159 0
78 45 c164 95 378 140 554 116 149 -19 304 -74 400 -142 23 -17 46 -19 187
-19 89 0 161 4 161 9 0 11 -829 1693 -841 1705 -5 6 -145 -266 -335 -650z
m496 -322 c82 -171 150 -313 150 -315 0 -2 -39 5 -87 16 -152 33 -428 23 -538
-19 -8 -3 37 99 99 228 63 128 135 278 160 333 37 78 49 96 56 84 6 -9 77
-157 160 -327z"/>
<path d="M6530 1610 l0 -140 265 0 265 0 0 -685 0 -685 160 0 160 0 0 685 0
685 265 0 265 0 0 140 0 140 -690 0 -690 0 0 -140z"/>
</g>
</svg>
